<?xml version="1.0" encoding="utf-8"?>
<!-- Generator: Adobe Illustrator 24.1.0, SVG Export Plug-In . SVG Version: 6.00 Build 0)  -->
<svg version="1.1" id="Warstwa_1" xmlns="http://www.w3.org/2000/svg" xmlns:xlink="http://www.w3.org/1999/xlink" x="0px" y="0px"
	 viewBox="0 0 300 240" style="enable-background:new 0 0 300 240;" xml:space="preserve">
<style type="text/css">
	.st0{filter:url(#Adobe_OpacityMaskFilter);}
	.st1{fill-rule:evenodd;clip-rule:evenodd;fill:#FFFFFF;}
	.st2{mask:url(#mask-2_32_);fill-rule:evenodd;clip-rule:evenodd;fill:#FFFFFF;}
	.st3{filter:url(#Adobe_OpacityMaskFilter_1_);}
	.st4{mask:url(#mask-2_31_);fill-rule:evenodd;clip-rule:evenodd;fill:#FFFFFF;}
	.st5{filter:url(#Adobe_OpacityMaskFilter_2_);}
	.st6{mask:url(#mask-2_30_);fill-rule:evenodd;clip-rule:evenodd;fill:#FFFFFF;}
	.st7{filter:url(#Adobe_OpacityMaskFilter_3_);}
	.st8{mask:url(#mask-2_29_);fill-rule:evenodd;clip-rule:evenodd;fill:#FFFFFF;}
	.st9{filter:url(#Adobe_OpacityMaskFilter_4_);}
	.st10{mask:url(#mask-2_28_);fill-rule:evenodd;clip-rule:evenodd;fill:#FFFFFF;}
	.st11{filter:url(#Adobe_OpacityMaskFilter_5_);}
	.st12{mask:url(#mask-2_27_);fill-rule:evenodd;clip-rule:evenodd;fill:#FFFFFF;}
	.st13{filter:url(#Adobe_OpacityMaskFilter_6_);}
	.st14{mask:url(#mask-2_26_);fill-rule:evenodd;clip-rule:evenodd;fill:#FFFFFF;}
	.st15{filter:url(#Adobe_OpacityMaskFilter_7_);}
	.st16{mask:url(#mask-2_25_);fill-rule:evenodd;clip-rule:evenodd;fill:#FF1744;}
	.st17{filter:url(#Adobe_OpacityMaskFilter_8_);}
	.st18{mask:url(#mask-2_24_);fill-rule:evenodd;clip-rule:evenodd;fill:#FF1744;}
	.st19{filter:url(#Adobe_OpacityMaskFilter_9_);}
	.st20{mask:url(#mask-2_23_);fill-rule:evenodd;clip-rule:evenodd;fill:#FF1744;}
	.st21{filter:url(#Adobe_OpacityMaskFilter_10_);}
	.st22{mask:url(#mask-2_22_);fill-rule:evenodd;clip-rule:evenodd;fill:#FF1744;}
	.st23{filter:url(#Adobe_OpacityMaskFilter_11_);}
	.st24{mask:url(#mask-2_21_);fill-rule:evenodd;clip-rule:evenodd;fill:#FF1744;}
	.st25{filter:url(#Adobe_OpacityMaskFilter_12_);}
	.st26{mask:url(#mask-2_20_);fill-rule:evenodd;clip-rule:evenodd;fill:#FF1744;}
	.st27{filter:url(#Adobe_OpacityMaskFilter_13_);}
	.st28{mask:url(#mask-2_19_);fill-rule:evenodd;clip-rule:evenodd;fill:#FF1744;}
	.st29{filter:url(#Adobe_OpacityMaskFilter_14_);}
	.st30{mask:url(#mask-2_18_);fill-rule:evenodd;clip-rule:evenodd;fill:#FF1744;}
	.st31{filter:url(#Adobe_OpacityMaskFilter_15_);}
	.st32{mask:url(#mask-2_17_);fill-rule:evenodd;clip-rule:evenodd;fill:#FF1744;}
</style>
<g id="GT-główna">
	<g id="GT-prop2" transform="translate(-376.000000, -298.000000)">
		<g id="Group-18" transform="translate(376.000000, 298.000000)">
			<g id="Clip-2">
			</g>
			<defs>
				<filter id="Adobe_OpacityMaskFilter" filterUnits="userSpaceOnUse" x="50.5" y="101" width="30" height="42">
					<feColorMatrix  type="matrix" values="1 0 0 0 0  0 1 0 0 0  0 0 1 0 0  0 0 0 1 0"/>
				</filter>
			</defs>
			<mask maskUnits="userSpaceOnUse" x="50.5" y="101" width="30" height="42" id="mask-2_32_">
				<g class="st0">
					<polygon id="path-1_32_" class="st1" points="6.5,79 291.5,79 291.5,159 6.5,159 					"/>
				</g>
			</mask>
			<path id="Fill-1" class="st2" d="M58,123.3H73v-14.7H58V123.3z M73.2,101H57.9h0c-4,0-7.3,3.3-7.4,7.4v15.1c0,2,0.7,3.9,2.2,5.2
				c1.4,1.4,3.3,2.2,5.2,2.2H73v4.3H55.3v7.7h17.9c0,0,0.1,0,0.1,0c1.9,0,3.8-0.8,5.1-2.2c1.3-1.4,2.1-3.3,2.1-5.2v-27.2
				c0-2-0.7-3.8-2.1-5.2C77.1,101.8,75.1,101,73.2,101L73.2,101z"/>
			<defs>
				<filter id="Adobe_OpacityMaskFilter_1_" filterUnits="userSpaceOnUse" x="86.5" y="101" width="30" height="30">
					<feColorMatrix  type="matrix" values="1 0 0 0 0  0 1 0 0 0  0 0 1 0 0  0 0 0 1 0"/>
				</filter>
			</defs>
			<mask maskUnits="userSpaceOnUse" x="86.5" y="101" width="30" height="30" id="mask-2_31_">
				<g class="st3">
					<polygon id="path-1_31_" class="st1" points="6.5,79 291.5,79 291.5,159 6.5,159 					"/>
				</g>
			</mask>
			<path id="Fill-3" class="st4" d="M94.1,123.3h14.9v-14.7H94.1V123.3z M109.2,101H93.8c-2,0-3.8,0.8-5.2,2.2
				c-1.4,1.4-2.2,3.3-2.2,5.2v15.2c0,4,3.3,7.4,7.3,7.4h15.4c4,0,7.3-3.4,7.3-7.4v-15.2c0-2-0.8-3.9-2.2-5.2
				C113,101.8,111.1,101,109.2,101L109.2,101z"/>
			<defs>
				<filter id="Adobe_OpacityMaskFilter_2_" filterUnits="userSpaceOnUse" x="119.5" y="101" width="40" height="30">
					<feColorMatrix  type="matrix" values="1 0 0 0 0  0 1 0 0 0  0 0 1 0 0  0 0 0 1 0"/>
				</filter>
			</defs>
			<mask maskUnits="userSpaceOnUse" x="119.5" y="101" width="40" height="30" id="mask-2_30_">
				<g class="st5">
					<polygon id="path-1_30_" class="st1" points="6.5,79 291.5,79 291.5,159 6.5,159 					"/>
				</g>
			</mask>
			<polygon id="Fill-4" class="st6" points="139.5,121.3 128.4,101 119.5,101 136.1,131 142.8,131 159.4,101.2 159.5,101 150.6,101 
							"/>
			<defs>
				<filter id="Adobe_OpacityMaskFilter_3_" filterUnits="userSpaceOnUse" x="162.5" y="92" width="19" height="39">
					<feColorMatrix  type="matrix" values="1 0 0 0 0  0 1 0 0 0  0 0 1 0 0  0 0 0 1 0"/>
				</filter>
			</defs>
			<mask maskUnits="userSpaceOnUse" x="162.5" y="92" width="19" height="39" id="mask-2_29_">
				<g class="st7">
					<polygon id="path-1_29_" class="st1" points="6.5,79 291.5,79 291.5,159 6.5,159 					"/>
				</g>
			</mask>
			<path id="Fill-5" class="st8" d="M170.2,92h-7.7v31.6c0,4,3.2,7.4,7.3,7.4c0,0,0.1,0,0.1,0c0,0,0.1,0,0.1,0h11.5v-7.7h-11.3
				v-14.7h11.3V101h-11.3V92z"/>
			<defs>
				<filter id="Adobe_OpacityMaskFilter_4_" filterUnits="userSpaceOnUse" x="188.5" y="101" width="30" height="30">
					<feColorMatrix  type="matrix" values="1 0 0 0 0  0 1 0 0 0  0 0 1 0 0  0 0 0 1 0"/>
				</filter>
			</defs>
			<mask maskUnits="userSpaceOnUse" x="188.5" y="101" width="30" height="30" id="mask-2_28_">
				<g class="st9">
					<polygon id="path-1_28_" class="st1" points="6.5,79 291.5,79 291.5,159 6.5,159 					"/>
				</g>
			</mask>
			<path id="Fill-6" class="st10" d="M196.1,113.2h14.9v-4.5h-14.9V113.2z M211.3,101C211.2,101,211.2,101,211.3,101l-15.4,0
				c-1.9,0-3.8,0.8-5.2,2.2c-1.4,1.4-2.2,3.3-2.2,5.2v15.2c0,2,0.8,3.9,2.2,5.2c1.3,1.4,3.2,2.2,5.1,2.2c0,0,0.1,0,0.1,0h22.7v-7.7
				h-22.4v-3.4h22.4v-11.5c0-2-0.7-3.8-2.1-5.2C215.1,101.8,213.2,101,211.3,101L211.3,101z"/>
			<defs>
				<filter id="Adobe_OpacityMaskFilter_5_" filterUnits="userSpaceOnUse" x="224.5" y="101" width="30" height="30">
					<feColorMatrix  type="matrix" values="1 0 0 0 0  0 1 0 0 0  0 0 1 0 0  0 0 0 1 0"/>
				</filter>
			</defs>
			<mask maskUnits="userSpaceOnUse" x="224.5" y="101" width="30" height="30" id="mask-2_27_">
				<g class="st11">
					<polygon id="path-1_27_" class="st1" points="6.5,79 291.5,79 291.5,159 6.5,159 					"/>
				</g>
			</mask>
			<path id="Fill-7" class="st12" d="M232,108.7h22.4V101h-22.6c-4,0-7.3,3.4-7.3,7.4v15.2c0,2,0.7,3.9,2.2,5.2
				c1.3,1.4,3.2,2.2,5.1,2.2h0h22.7v-7.7H232V108.7z"/>
			<defs>
				<filter id="Adobe_OpacityMaskFilter_6_" filterUnits="userSpaceOnUse" x="260.5" y="91" width="30" height="40">
					<feColorMatrix  type="matrix" values="1 0 0 0 0  0 1 0 0 0  0 0 1 0 0  0 0 0 1 0"/>
				</filter>
			</defs>
			<mask maskUnits="userSpaceOnUse" x="260.5" y="91" width="30" height="40" id="mask-2_26_">
				<g class="st13">
					<polygon id="path-1_26_" class="st1" points="6.5,79 291.5,79 291.5,159 6.5,159 					"/>
				</g>
			</mask>
			<path id="Fill-8" class="st14" d="M288.3,103.1c-1.3-1.4-3.2-2.2-5.2-2.2h-15.1V91h-7.6v40h7.6v-22.4h14.9V131h7.6v-22.6
				C290.5,106.4,289.7,104.5,288.3,103.1"/>
			<defs>
				<filter id="Adobe_OpacityMaskFilter_7_" filterUnits="userSpaceOnUse" x="17.5" y="93" width="24" height="51">
					<feColorMatrix  type="matrix" values="1 0 0 0 0  0 1 0 0 0  0 0 1 0 0  0 0 0 1 0"/>
				</filter>
			</defs>
			<mask maskUnits="userSpaceOnUse" x="17.5" y="93" width="24" height="51" id="mask-2_25_">
				<g class="st15">
					<polygon id="path-1_25_" class="st1" points="6.5,79 291.5,79 291.5,159 6.5,159 					"/>
				</g>
			</mask>
			<path id="Fill-9" class="st16" d="M21.2,95.4L17.5,96l1.1,34l22.9,14L40,132.9l-12.8-7.8l0,0l-0.7-21.9l9.5-1.6L34.7,93
				C30.6,93.8,25.1,94.7,21.2,95.4"/>
			<defs>
				<filter id="Adobe_OpacityMaskFilter_8_" filterUnits="userSpaceOnUse" x="30.5" y="104" width="10" height="25">
					<feColorMatrix  type="matrix" values="1 0 0 0 0  0 1 0 0 0  0 0 1 0 0  0 0 0 1 0"/>
				</filter>
			</defs>
			<mask maskUnits="userSpaceOnUse" x="30.5" y="104" width="10" height="25" id="mask-2_24_">
				<g class="st17">
					<polygon id="path-1_24_" class="st1" points="6.5,79 291.5,79 291.5,159 6.5,159 					"/>
				</g>
			</mask>
			<polygon id="Fill-10" class="st18" points="31.1,123.1 40.5,129 37.4,104 34.3,104.6 30.5,105.2 			"/>
			<defs>
				<filter id="Adobe_OpacityMaskFilter_9_" filterUnits="userSpaceOnUse" x="6.5" y="79" width="39" height="80">
					<feColorMatrix  type="matrix" values="1 0 0 0 0  0 1 0 0 0  0 0 1 0 0  0 0 0 1 0"/>
				</filter>
			</defs>
			<mask maskUnits="userSpaceOnUse" x="6.5" y="79" width="39" height="80" id="mask-2_23_">
				<g class="st19">
					<polygon id="path-1_23_" class="st1" points="6.5,79 291.5,79 291.5,159 6.5,159 					"/>
				</g>
			</mask>
			<path id="Fill-11" class="st20" d="M21.8,92.4c7.2-1.3,16.9-3.2,23.7-4.6V79c-10.9,2.2-32.9,6.3-35.3,6.8l-3.7,0.6l1.6,50.7
				L43.4,159L42,147.9l-25.3-15.8l0,0l-1.3-38.5l0.1,0C17.1,93.3,19.3,92.9,21.8,92.4"/>
			<defs>
				<filter id="Adobe_OpacityMaskFilter_10_" filterUnits="userSpaceOnUse" x="208.5" y="138" width="15" height="15">
					<feColorMatrix  type="matrix" values="1 0 0 0 0  0 1 0 0 0  0 0 1 0 0  0 0 0 1 0"/>
				</filter>
			</defs>
			<mask maskUnits="userSpaceOnUse" x="208.5" y="138" width="15" height="15" id="mask-2_22_">
				<g class="st21">
					<polygon id="path-1_22_" class="st1" points="6.5,79 291.5,79 291.5,159 6.5,159 					"/>
				</g>
			</mask>
			<path id="Fill-12" class="st22" d="M211.6,144.9h8.9V141h-8.9V144.9z M222.6,147.1c0.6-0.6,0.9-1.3,0.9-2.1V141
				c0-0.8-0.3-1.5-0.9-2.1c-0.6-0.6-1.3-0.9-2.1-0.9h-12v15h3.1v-5.1l0.1,0.1V148l8.8,0C221.3,148,222,147.7,222.6,147.1
				L222.6,147.1z"/>
			<defs>
				<filter id="Adobe_OpacityMaskFilter_11_" filterUnits="userSpaceOnUse" x="226.5" y="141" width="13" height="12">
					<feColorMatrix  type="matrix" values="1 0 0 0 0  0 1 0 0 0  0 0 1 0 0  0 0 0 1 0"/>
				</filter>
			</defs>
			<mask maskUnits="userSpaceOnUse" x="226.5" y="141" width="13" height="12" id="mask-2_21_">
				<g class="st23">
					<polygon id="path-1_21_" class="st1" points="6.5,79 291.5,79 291.5,159 6.5,159 					"/>
				</g>
			</mask>
			<path id="Fill-13" class="st24" d="M229.7,150h6.6v-6h-6.6V150z M236.4,141h-6.7c-0.9,0-1.6,0.3-2.2,0.9
				c-0.6,0.6-0.9,1.3-0.9,2.1v6.1c0,0.8,0.3,1.5,0.9,2.1c0.6,0.6,1.4,0.9,2.2,0.9h6.7c0.9,0,1.6-0.3,2.2-0.9
				c0.6-0.6,0.9-1.3,0.9-2.1v-6.1c0-0.8-0.3-1.5-0.9-2.1C238,141.3,237.2,141,236.4,141L236.4,141z"/>
			<defs>
				<filter id="Adobe_OpacityMaskFilter_12_" filterUnits="userSpaceOnUse" x="240.5" y="137" width="6" height="15">
					<feColorMatrix  type="matrix" values="1 0 0 0 0  0 1 0 0 0  0 0 1 0 0  0 0 0 1 0"/>
				</filter>
			</defs>
			<mask maskUnits="userSpaceOnUse" x="240.5" y="137" width="6" height="15" id="mask-2_20_">
				<g class="st25">
					<polygon id="path-1_20_" class="st1" points="6.5,79 291.5,79 291.5,159 6.5,159 					"/>
				</g>
			</mask>
			<path id="Fill-14" class="st26" d="M243.7,152h2.8v-2.8h-2.7V137h-3.3v12.2c0,0.7,0.3,1.4,1,1.9C242.1,151.7,242.8,152,243.7,152
				"/>
			<defs>
				<filter id="Adobe_OpacityMaskFilter_13_" filterUnits="userSpaceOnUse" x="248.5" y="141" width="13" height="12">
					<feColorMatrix  type="matrix" values="1 0 0 0 0  0 1 0 0 0  0 0 1 0 0  0 0 0 1 0"/>
				</filter>
			</defs>
			<mask maskUnits="userSpaceOnUse" x="248.5" y="141" width="13" height="12" id="mask-2_19_">
				<g class="st27">
					<polygon id="path-1_19_" class="st1" points="6.5,79 291.5,79 291.5,159 6.5,159 					"/>
				</g>
			</mask>
			<path id="Fill-15" class="st28" d="M251.6,153h6.7c0.9,0,1.6-0.3,2.2-0.9c0.6-0.6,0.9-1.3,0.9-2.1v-1.6c0-0.8-0.3-1.5-0.9-2.1
				c-0.6-0.6-1.4-0.9-2.2-0.9h-6.6V144h6.6v0.4h3.2v-0.5c0-0.8-0.3-1.5-0.9-2.1c-0.6-0.6-1.4-0.9-2.2-0.9h-6.7
				c-0.8,0-1.6,0.3-2.2,0.9c-0.6,0.6-0.9,1.3-0.9,2.1v1.6c0,0.8,0.3,1.5,0.9,2.1c0.6,0.6,1.4,0.9,2.2,0.9h6.6v1.5h-6.6v-0.4h-3.2
				v0.5c0,0.8,0.3,1.5,0.9,2.1C250,152.7,250.8,153,251.6,153"/>
			<defs>
				<filter id="Adobe_OpacityMaskFilter_14_" filterUnits="userSpaceOnUse" x="263.5" y="137" width="13" height="15">
					<feColorMatrix  type="matrix" values="1 0 0 0 0  0 1 0 0 0  0 0 1 0 0  0 0 0 1 0"/>
				</filter>
			</defs>
			<mask maskUnits="userSpaceOnUse" x="263.5" y="137" width="13" height="15" id="mask-2_18_">
				<g class="st29">
					<polygon id="path-1_18_" class="st1" points="6.5,79 291.5,79 291.5,159 6.5,159 					"/>
				</g>
			</mask>
			<polygon id="Fill-16" class="st30" points="273.2,152 276.5,152 276.5,151.1 271.5,146.4 276.5,141.6 276.5,140.8 273.2,140.8 
				268.7,145 266.7,145 266.7,137 263.5,137 263.5,152 266.7,152 266.7,147.8 268.7,147.8 			"/>
			<defs>
				<filter id="Adobe_OpacityMaskFilter_15_" filterUnits="userSpaceOnUse" x="278.5" y="141" width="13" height="12">
					<feColorMatrix  type="matrix" values="1 0 0 0 0  0 1 0 0 0  0 0 1 0 0  0 0 0 1 0"/>
				</filter>
			</defs>
			<mask maskUnits="userSpaceOnUse" x="278.5" y="141" width="13" height="12" id="mask-2_17_">
				<g class="st31">
					<polygon id="path-1_17_" class="st1" points="6.5,79 291.5,79 291.5,159 6.5,159 					"/>
				</g>
			</mask>
			<path id="Fill-17" class="st32" d="M281.7,150h6.6v-1.9h-6.6V150z M281.6,153h9.9v-9.1c0-0.8-0.3-1.5-0.9-2.1
				c-0.6-0.6-1.4-0.9-2.2-0.9h-9.9v3h9.8v1.5h-9.8v4.6c0,0.8,0.3,1.5,0.9,2.1C280,152.7,280.8,153,281.6,153L281.6,153z"/>
		</g>
	</g>
</g>
</svg>
